<svg width="20" height="20" viewBox="0 0 20 20" fill="none" xmlns="http://www.w3.org/2000/svg">
<path fill-rule="evenodd" clip-rule="evenodd" d="M14.3976 8C14.3976 11.3113 11.7091 14 8.38728 14C5.06543 14 2.37695 11.3113 2.37695 8C2.37695 4.68872 5.06543 2 8.38728 2C11.7091 2 14.3976 4.68872 14.3976 8ZM13.2342 14.3699C11.8885 15.3927 10.2089 16 8.38728 16C3.9633 16 0.376953 12.4183 0.376953 8C0.376953 3.58172 3.9633 0 8.38728 0C12.8113 0 16.3976 3.58172 16.3976 8C16.3976 9.87635 15.7508 11.6018 14.6677 12.9662L19.1678 18.3593C19.5216 18.7834 19.4647 19.414 19.0407 19.7678C18.6166 20.1216 17.986 20.0647 17.6322 19.6407L13.2342 14.3699Z" fill="#9E9E9E"/>
</svg>
